<svg class="svg-icon" style="width: 1em; height: 1em;vertical-align: middle;fill: currentColor;overflow: hidden;" viewBox="0 0 1024 1024" version="1.1" xmlns="http://www.w3.org/2000/svg"><path d="M1019.611429 396.434286c-5.851429-38.034286-24.868571-70.217143-55.588572-90.697143-14.628571-8.777143-20.48-23.405714-27.794286-40.96l-2.925714-7.314286c-21.942857-48.274286-61.44-81.92-114.102857-95.085714-10.24-2.925714-17.554286-7.314286-24.868571-17.554286-30.72-38.034286-74.605714-55.588571-125.805715-49.737143-10.24 1.462857-13.165714 0-16.091428-1.462857-19.017143-11.702857-38.034286-16.091429-57.051429-20.48l-7.314286-1.462857H555.885714l-4.388571 1.462857-13.165714 4.388572c-10.24 2.925714-21.942857 5.851429-33.645715 11.702857l-2.925714-1.462857c-67.291429-20.48-128.731429-5.851429-182.857143 40.96l-1.462857 1.462857c-46.811429-7.314286-90.697143 10.24-125.805714 49.737143-1.462857 2.925714-2.925714 2.925714-4.388572 2.925714-62.902857 11.702857-106.788571 49.737143-125.805714 112.64-5.851429 19.017143-13.165714 32.182857-23.405714 45.348571-14.628571 19.017143-24.868571 40.96-30.72 65.828572 0 2.925714-1.462857 4.388571-1.462857 7.314285-1.462857 4.388571-2.925714 10.24-4.388572 16.091429-2.925714 19.017143-2.925714 38.034286 0 57.051429 0 4.388571 1.462857 8.777143 2.925714 11.702857 0 1.462857 0 1.462857 1.462858 2.925714 21.942857 87.771429 78.994286 141.897143 165.302857 159.451429 14.628571 2.925714 29.257143 2.925714 42.422857 2.925714h19.017143c23.405714 1.462857 26.331429 4.388571 30.72 13.165714 4.388571 10.24 10.24 19.017143 16.091428 24.868572l1.462857 1.462857C318.902857 750.445714 373.028571 775.314286 438.857143 775.314286c51.2 0 111.177143 52.662857 124.342857 95.085714 2.925714 8.777143 2.925714 19.017143 4.388571 29.257143 0 11.702857 1.462857 24.868571 5.851429 38.034286l4.388571 14.628571h177.005715l-2.925715-23.405714c-1.462857-7.314286-1.462857-14.628571-2.925714-20.48v-2.925715c-1.462857-16.091429-4.388571-35.108571-7.314286-52.662857 78.994286-7.314286 136.045714-49.737143 171.154286-122.88 8.777143-17.554286 13.165714-38.034286 16.091429-61.44v-1.462857c51.2-26.331429 80.457143-67.291429 86.308571-115.565714 10.24-55.588571 10.24-106.788571 4.388572-155.062857z m-42.422858 149.211428c-4.388571 30.72-20.48 52.662857-39.497142 67.291429-4.388571-17.554286-13.165714-48.274286-27.794286-71.68-21.942857-38.034286-87.771429-68.754286-96.548572-73.142857-4.388571-2.925714-11.702857-2.925714-16.091428 0-10.24 4.388571-16.091429 16.091429-11.702857 27.794285 1.462857 5.851429 5.851429 8.777143 11.702857 11.702858 23.405714 11.702857 65.828571 35.108571 77.531428 55.588571 16.091429 27.794286 26.331429 71.68 26.331429 71.68l1.462857 2.925714c-5.851429 7.314286-10.24 16.091429-11.702857 26.331429-1.462857 19.017143-5.851429 33.645714-11.702857 46.811428-29.257143 61.44-76.068571 93.622857-143.36 99.474286-5.851429 0-19.017143 1.462857-27.794286 11.702857-7.314286 10.24-7.314286 20.48-5.851428 29.257143 2.925714 19.017143 5.851429 38.034286 7.314285 55.588572v2.925714h-98.011428c0-4.388571 0-8.777143-1.462857-14.628572 0-11.702857-1.462857-26.331429-5.851429-40.96-19.017143-58.514286-93.622857-124.342857-163.84-124.342857H438.857143c-52.662857 0-95.085714-19.017143-125.805714-55.588571l-1.462858-2.925714c-2.925714-4.388571-7.314286-8.777143-8.777142-13.165715-2.925714-8.777143-7.314286-14.628571-11.702858-20.48l1.462858 1.462857s-2.925714-10.24-2.925715-11.702857c-2.925714-38.034286 4.388571-54.125714 10.24-59.977143 24.868571-33.645714 68.754286-54.125714 68.754286-54.125714h1.462857c10.24-4.388571 16.091429-16.091429 11.702857-27.794286-4.388571-10.24-16.091429-16.091429-27.794285-11.702857-1.462857 0-1.462857 1.462857-2.925715 1.462857-1.462857 1.462857-54.125714 24.868571-84.845714 67.291429-13.165714 17.554286-19.017143 42.422857-17.554286 74.605714h-32.182857c-11.702857 0-23.405714 0-33.645714-1.462857-71.68-14.628571-115.565714-57.051429-134.582857-128.731428 0-1.462857-1.462857-4.388571-1.462857-5.851429L43.885714 482.742857c0-1.462857 0-1.462857-1.462857-2.925714-1.462857-14.628571-1.462857-30.72 0-45.348572 0-2.925714 1.462857-5.851429 2.925714-8.777142 1.462857-4.388571 2.925714-7.314286 2.925715-11.702858 2.925714-11.702857 5.851429-21.942857 11.702857-30.72 8.777143 20.48 21.942857 43.885714 43.885714 54.125715 21.942857 11.702857 42.422857 17.554286 55.588572 20.48-10.24 17.554286-16.091429 39.497143-10.24 65.828571V528.091429c4.388571 10.24 16.091429 16.091429 27.794285 11.702857 8.777143-4.388571 14.628571-13.165714 13.165715-23.405715-7.314286-30.72 14.628571-52.662857 26.331428-62.902857 10.24-10.24 10.24-11.702857 14.628572-17.554285 4.388571-5.851429 14.628571-19.017143 2.925714-32.182858-4.388571-5.851429-13.165714-1.462857-13.165714-1.462857s-23.405714 11.702857-24.868572 13.165715c-5.851429 2.925714-14.628571 1.462857-17.554286 2.925714-7.314286-1.462857-29.257143-7.314286-54.125714-19.017143-14.628571-7.314286-27.794286-39.497143-33.645714-62.902857 4.388571-10.24 8.777143-20.48 13.165714-32.182857 14.628571-46.811429 46.811429-76.068571 93.622857-83.382857 14.628571-2.925714 21.942857-10.24 27.794286-16.091429 27.794286-30.72 55.588571-40.96 90.697143-36.571429 19.017143 2.925714 30.72-7.314286 33.645714-11.702857 42.422857-38.034286 89.234286-48.274286 143.36-32.182857h1.462857c5.851429 1.462857 17.554286 5.851429 29.257143-1.462857 8.777143-4.388571 17.554286-7.314286 27.794286-10.24 2.925714-1.462857 7.314286-1.462857 10.24-2.925714h20.48l4.388571 1.462857c7.314286 1.462857 16.091429 2.925714 21.942857 5.851428-20.48 19.017143-45.348571 52.662857-42.422857 106.788572 0 2.925714 0 7.314286 1.462857 10.24 4.388571 10.24 16.091429 16.091429 27.794286 11.702857 8.777143-2.925714 13.165714-11.702857 13.165714-19.017143-5.851429-61.44 40.96-87.771429 46.811429-90.697143H672.914286c36.571429-4.388571 65.828571 7.314286 89.234285 35.108572 13.165714 16.091429 27.794286 26.331429 46.811429 30.72 40.96 10.24 70.217143 35.108571 86.308571 71.68l2.925715 5.851428c8.777143 20.48 19.017143 42.422857 43.885714 58.514286 19.017143 13.165714 33.645714 35.108571 36.571429 61.44 5.851429 46.811429 5.851429 95.085714-1.462858 146.285714z" fill="#437DFF" /><path d="M835.291429 377.417143c-8.777143-61.44-62.902857-112.64-125.805715-117.028572-5.851429 0-21.942857-1.462857-21.942857 16.091429-1.462857 14.628571 11.702857 16.091429 17.554286 16.091429h2.925714c61.44 11.702857 89.234286 39.497143 96.548572 99.474285 0 4.388571 1.462857 11.702857 7.314285 14.628572 2.925714 1.462857 5.851429 2.925714 8.777143 2.925714h2.925714c13.165714-1.462857 13.165714-14.628571 13.165715-19.017143v-5.851428c-1.462857-2.925714-1.462857-5.851429-1.462857-7.314286z" fill="#62F6DD" /><path d="M624.64 573.44c5.851429 0 8.777143-2.925714 10.24-5.851429 4.388571-5.851429 4.388571-13.165714 2.925714-17.554285-1.462857-23.405714-7.314286-39.497143-17.554285-54.125715-1.462857-1.462857-2.925714-4.388571-2.925715-4.388571 1.462857 0 2.925714 0 7.314286-1.462857 17.554286-1.462857 39.497143-4.388571 58.514286-13.165714 45.348571-20.48 74.605714-54.125714 89.234285-98.011429 4.388571-13.165714 1.462857-23.405714-8.777142-26.331429-5.851429-2.925714-10.24-1.462857-13.165715 0-7.314286 2.925714-8.777143 10.24-10.24 16.091429-5.851429 19.017143-14.628571 36.571429-30.72 51.2-33.645714 33.645714-73.142857 45.348571-117.028571 35.108571-57.051429-13.165714-90.697143-49.737143-99.474286-111.177142v-1.462858c0-5.851429-1.462857-19.017143-17.554286-17.554285-14.628571 1.462857-14.628571 13.165714-14.628571 20.48v7.314285c7.314286 57.051429 36.571429 98.011429 83.382857 121.417143 38.034286 17.554286 58.514286 43.885714 62.902857 81.92 1.462857 14.628571 8.777143 19.017143 16.091429 19.017143 0-1.462857 1.462857-1.462857 1.462857-1.462857zM778.24 624.64l-1.462857 1.462857c-36.571429 40.96-77.531429 48.274286-128.731429 24.868572l-1.462857-1.462858c-4.388571-1.462857-10.24-4.388571-16.091428-2.925714-4.388571 1.462857-5.851429 4.388571-8.777143 8.777143-4.388571 8.777143-1.462857 17.554286 11.702857 24.868571 21.942857 11.702857 42.422857 17.554286 64.365714 17.554286 40.96 0 74.605714-17.554286 102.4-49.737143 2.925714-4.388571 14.628571-17.554286 1.462857-27.794285-10.24-8.777143-20.48 1.462857-23.405714 4.388571zM351.085714 260.388571c-13.165714-8.777143-21.942857 2.925714-24.868571 7.314286l-1.462857 1.462857c-32.182857 39.497143-67.291429 48.274286-114.102857 29.257143h-1.462858c-4.388571-1.462857-17.554286-7.314286-23.405714 7.314286-2.925714 7.314286-2.925714 16.091429 11.702857 23.405714 16.091429 8.777143 30.72 11.702857 45.348572 11.702857h7.314285c54.125714 4.388571 89.234286-33.645714 100.937143-51.2l1.462857-1.462857c2.925714-4.388571 7.314286-8.777143 5.851429-16.091428 0-5.851429-2.925714-8.777143-7.314286-11.702858z" fill="#62F6DD" /><path d="M488.594286 279.405714c35.108571 4.388571 58.514286 27.794286 62.902857 62.902857v2.925715c0 4.388571 1.462857 10.24 5.851428 14.628571 2.925714 1.462857 5.851429 2.925714 10.24 2.925714h1.462858c14.628571-1.462857 14.628571-14.628571 14.628571-19.017142v-2.925715c0-42.422857-39.497143-84.845714-89.234286-93.622857-7.314286-1.462857-14.628571-1.462857-20.48 2.925714-2.925714 1.462857-5.851429 5.851429-5.851428 11.702858-4.388571 14.628571 11.702857 17.554286 20.48 17.554285zM393.508571 437.394286c-4.388571-4.388571-8.777143-5.851429-14.628571-5.851429-2.925714 0-7.314286 1.462857-10.24 5.851429-2.925714 4.388571-8.777143 13.165714 4.388571 24.868571 1.462857 1.462857 1.462857 1.462857 2.925715 1.462857l1.462857 1.462857c20.48 20.48 27.794286 39.497143 24.868571 61.44 0 2.925714-1.462857 7.314286-4.388571 11.702858-1.462857 2.925714-2.925714 7.314286-4.388572 10.24 0 1.462857 0 1.462857-1.462857 2.925714-1.462857 4.388571-7.314286 17.554286 5.851429 23.405714 2.925714 1.462857 5.851429 1.462857 7.314286 1.462857 2.925714 0 4.388571 0 5.851428-1.462857 7.314286-2.925714 10.24-10.24 11.702857-16.091428 5.851429-14.628571 10.24-27.794286 10.24-39.497143 2.925714-40.96-21.942857-67.291429-39.497143-81.92z" fill="#62F6DD" /></svg>